<svg xmlns="http://www.w3.org/2000/svg" viewBox="0 0 865 123" width="865" height="123">
  <path fill="#f0f6fc" d="M25.63 95.81L25.63 95.81Q15.26 95.81 9.17 90.14Q3.07 84.48 3.07 74.30L3.07 74.30L3.07 67.97L15.74 67.97L15.74 74.30Q15.74 78.82 18.24 81.36Q20.74 83.90 25.25 83.90L25.25 83.90Q29.47 83.90 31.82 81.41Q34.18 78.91 34.18 74.30L34.18 74.30L34.18 38.78L22.66 38.78L22.66 27.26L54.53 27.26L54.53 38.78L46.85 38.78L46.85 74.30Q46.85 84.77 41.18 90.29Q35.52 95.81 25.63 95.81ZM83.33 95.81L83.33 95.81Q76.22 95.81 70.80 92.78Q65.38 89.76 62.35 84.24Q59.33 78.72 59.33 71.23L59.33 71.23L59.33 70.08Q59.33 62.59 62.30 57.07Q65.28 51.55 70.66 48.53Q76.03 45.50 83.14 45.50L83.14 45.50Q90.14 45.50 95.33 48.62Q100.51 51.74 103.39 57.26Q106.27 62.78 106.27 70.08L106.27 70.08L106.27 74.21L71.62 74.21Q71.81 79.10 75.26 82.18Q78.72 85.25 83.71 85.25L83.71 85.25Q88.80 85.25 91.20 83.04Q93.60 80.83 94.85 78.14L94.85 78.14L104.74 83.33Q103.39 85.82 100.85 88.75Q98.30 91.68 94.08 93.74Q89.86 95.81 83.33 95.81ZM71.71 65.18L71.71 65.18L93.98 65.18Q93.60 61.06 90.67 58.56Q87.74 56.06 83.04 56.06L83.04 56.06Q78.14 56.06 75.26 58.56Q72.38 61.06 71.71 65.18ZM144.86 94.46L125.66 94.46L110.50 46.85L123.36 46.85L134.40 85.63L136.13 85.63L147.17 46.85L160.03 46.85L144.86 94.46ZM204.96 94.46L192.29 94.46L192.29 27.26L221.47 27.26Q227.81 27.26 232.51 29.47Q237.22 31.68 239.81 35.71Q242.40 39.74 242.40 45.22L242.40 45.22L242.40 46.37Q242.40 52.42 239.52 56.16Q236.64 59.90 232.42 61.63L232.42 61.63L232.42 63.36Q236.26 63.55 238.37 66Q240.48 68.45 240.48 72.48L240.48 72.48L240.48 94.46L227.81 94.46L227.81 74.30Q227.81 72 226.61 70.56Q225.41 69.12 222.62 69.12L222.62 69.12L204.96 69.12L204.96 94.46ZM204.96 38.78L204.96 57.60L220.13 57.60Q224.64 57.60 227.18 55.15Q229.73 52.70 229.73 48.67L229.73 48.67L229.73 47.71Q229.73 43.68 227.23 41.23Q224.74 38.78 220.13 38.78L220.13 38.78L204.96 38.78ZM275.04 95.81L275.04 95.81Q267.94 95.81 262.51 92.78Q257.09 89.76 254.06 84.24Q251.04 78.72 251.04 71.23L251.04 71.23L251.04 70.08Q251.04 62.59 254.02 57.07Q256.99 51.55 262.37 48.53Q267.74 45.50 274.85 45.50L274.85 45.50Q281.86 45.50 287.04 48.62Q292.22 51.74 295.10 57.26Q297.98 62.78 297.98 70.08L297.98 70.08L297.98 74.21L263.33 74.21Q263.52 79.10 266.98 82.18Q270.43 85.25 275.42 85.25L275.42 85.25Q280.51 85.25 282.91 83.04Q285.31 80.83 286.56 78.14L286.56 78.14L296.45 83.33Q295.10 85.82 292.56 88.75Q290.02 91.68 285.79 93.74Q281.57 95.81 275.04 95.81ZM263.42 65.18L263.42 65.18L285.70 65.18Q285.31 61.06 282.38 58.56Q279.46 56.06 274.75 56.06L274.75 56.06Q269.86 56.06 266.98 58.56Q264.10 61.06 263.42 65.18ZM338.88 94.46L325.44 94.46Q320.74 94.46 317.81 91.54Q314.88 88.61 314.88 83.71L314.88 83.71L314.88 56.83L302.98 56.83L302.98 46.85L314.88 46.85L314.88 32.06L326.98 32.06L326.98 46.85L340.03 46.85L340.03 56.83L326.98 56.83L326.98 81.60Q326.98 84.48 329.66 84.48L329.66 84.48L338.88 84.48L338.88 94.46ZM363.07 94.46L350.98 94.46L350.98 46.85L362.88 46.85L362.88 52.22L364.61 52.22Q365.66 49.34 368.11 48Q370.56 46.66 373.82 46.66L373.82 46.66L379.58 46.66L379.58 57.41L373.63 57.41Q369.02 57.41 366.05 59.86Q363.07 62.30 363.07 67.39L363.07 67.39L363.07 94.46ZM401.09 94.46L388.99 94.46L388.99 46.85L401.09 46.85L401.09 94.46ZM395.04 41.28L395.04 41.28Q391.78 41.28 389.52 39.17Q387.26 37.06 387.26 33.60L387.26 33.60Q387.26 30.14 389.52 28.03Q391.78 25.92 395.04 25.92L395.04 25.92Q398.40 25.92 400.61 28.03Q402.82 30.14 402.82 33.60L402.82 33.60Q402.82 37.06 400.61 39.17Q398.40 41.28 395.04 41.28ZM436.22 95.81L436.22 95.81Q429.12 95.81 423.70 92.78Q418.27 89.76 415.25 84.24Q412.22 78.72 412.22 71.23L412.22 71.23L412.22 70.08Q412.22 62.59 415.20 57.07Q418.18 51.55 423.55 48.53Q428.93 45.50 436.03 45.50L436.03 45.50Q443.04 45.50 448.22 48.62Q453.41 51.74 456.29 57.26Q459.17 62.78 459.17 70.08L459.17 70.08L459.17 74.21L424.51 74.21Q424.70 79.10 428.16 82.18Q431.62 85.25 436.61 85.25L436.61 85.25Q441.70 85.25 444.10 83.04Q446.50 80.83 447.74 78.14L447.74 78.14L457.63 83.33Q456.29 85.82 453.74 88.75Q451.20 91.68 446.98 93.74Q442.75 95.81 436.22 95.81ZM424.61 65.18L424.61 65.18L446.88 65.18Q446.50 61.06 443.57 58.56Q440.64 56.06 435.94 56.06L435.94 56.06Q431.04 56.06 428.16 58.56Q425.28 61.06 424.61 65.18ZM497.76 94.46L478.56 94.46L463.39 46.85L476.26 46.85L487.30 85.63L489.02 85.63L500.06 46.85L512.93 46.85L497.76 94.46ZM534.82 95.81L534.82 95.81Q529.73 95.81 525.70 94.03Q521.66 92.26 519.31 88.85Q516.96 85.44 516.96 80.54L516.96 80.54Q516.96 75.65 519.31 72.34Q521.66 69.02 525.84 67.34Q530.02 65.66 535.39 65.66L535.39 65.66L548.45 65.66L548.45 62.98Q548.45 59.62 546.34 57.46Q544.22 55.30 539.62 55.30L539.62 55.30Q535.10 55.30 532.90 57.36Q530.69 59.42 530.02 62.69L530.02 62.69L518.88 58.94Q520.03 55.30 522.58 52.27Q525.12 49.25 529.39 47.38Q533.66 45.50 539.81 45.50L539.81 45.50Q549.22 45.50 554.69 50.21Q560.16 54.91 560.16 63.84L560.16 63.84L560.16 81.60Q560.16 84.48 562.85 84.48L562.85 84.48L566.69 84.48L566.69 94.46L558.62 94.46Q555.07 94.46 552.77 92.74Q550.46 91.01 550.46 88.13L550.46 88.13L550.46 88.03L548.64 88.03Q548.26 89.18 546.91 91.06Q545.57 92.93 542.69 94.37Q539.81 95.81 534.82 95.81ZM536.93 86.02L536.93 86.02Q542.02 86.02 545.23 83.18Q548.45 80.35 548.45 75.65L548.45 75.65L548.45 74.69L536.26 74.69Q532.90 74.69 530.98 76.13Q529.06 77.57 529.06 80.16L529.06 80.16Q529.06 82.75 531.07 84.38Q533.09 86.02 536.93 86.02ZM587.62 94.46L575.52 94.46L575.52 27.26L587.62 27.26L587.62 94.46Z"/>
  <path fill="#9198a1" d="M654.82 109.06L654.82 117.50Q644.83 117.50 637.82 114.05Q630.82 110.59 627.22 103.25Q623.62 95.90 623.62 84.38L623.62 84.38L623.62 55.58Q623.62 44.06 627.22 36.72Q630.82 29.38 637.82 25.92Q644.83 22.46 654.82 22.46L654.82 22.46L654.82 30.91Q643.87 31.01 638.54 37.10Q633.22 43.20 633.22 55.97L633.22 55.97L633.22 84Q633.22 96.77 638.54 102.86Q643.87 108.96 654.82 109.06L654.82 109.06ZM667.30 113.66L657.70 113.66L657.70 105.12L664.13 105.12Q666.91 105.12 666.91 102.24L666.91 102.24L666.91 47.14L676.80 47.14L676.80 104.16Q676.80 108.48 674.30 111.07Q671.81 113.66 667.30 113.66L667.30 113.66ZM671.90 40.70L671.90 40.70Q669.02 40.70 667.06 38.83Q665.09 36.96 665.09 33.98L665.09 33.98Q665.09 31.01 667.06 29.14Q669.02 27.26 671.90 27.26L671.90 27.26Q674.88 27.26 676.80 29.14Q678.72 31.01 678.72 33.98L678.72 33.98Q678.72 36.96 676.80 38.83Q674.88 40.70 671.90 40.70ZM713.18 95.81L713.18 95.81Q705.98 95.81 700.61 92.78Q695.23 89.76 692.21 84.24Q689.18 78.72 689.18 71.42L689.18 71.42L689.18 70.27Q689.18 62.88 692.16 57.36Q695.14 51.84 700.46 48.82Q705.79 45.79 712.80 45.79L712.80 45.79Q719.62 45.79 724.75 48.82Q729.89 51.84 732.77 57.22Q735.65 62.59 735.65 69.79L735.65 69.79L735.65 73.54L699.26 73.54Q699.46 79.78 703.44 83.47Q707.42 87.17 713.38 87.17L713.38 87.17Q718.94 87.17 721.78 84.67Q724.61 82.18 726.14 78.91L726.14 78.91L734.30 83.14Q732.96 85.82 730.42 88.80Q727.87 91.78 723.74 93.79Q719.62 95.81 713.18 95.81ZM699.36 65.95L699.36 65.95L725.57 65.95Q725.18 60.58 721.73 57.55Q718.27 54.53 712.70 54.53L712.70 54.53Q707.14 54.53 703.63 57.55Q700.13 60.58 699.36 65.95ZM772.61 94.46L756.86 94.46L740.93 47.14L751.39 47.14L763.97 87.17L765.50 87.17L778.08 47.14L788.54 47.14L772.61 94.46ZM808.03 94.46L798.14 94.46L798.14 47.14L807.84 47.14L807.84 52.70L809.38 52.70Q810.53 49.73 813.07 48.34Q815.62 46.94 819.36 46.94L819.36 46.94L825.02 46.94L825.02 55.87L818.98 55.87Q814.18 55.87 811.10 58.51Q808.03 61.15 808.03 66.62L808.03 66.62L808.03 94.46ZM828.29 117.50L828.29 117.50L828.29 109.06Q839.42 108.96 844.70 102.86Q849.98 96.77 849.98 84L849.98 84L849.98 55.97Q849.98 43.20 844.70 37.10Q839.42 31.01 828.29 30.91L828.29 30.91L828.29 22.46Q838.37 22.46 845.33 25.92Q852.29 29.38 855.89 36.72Q859.49 44.06 859.49 55.58L859.49 55.58L859.49 84.38Q859.49 95.90 855.89 103.25Q852.29 110.59 845.33 114.05Q838.37 117.50 828.29 117.50Z"/>
</svg>
